<?xml version="1.0" encoding="UTF-8"?>
<svg id="Layer_1" data-name="Layer 1" xmlns="http://www.w3.org/2000/svg" viewBox="0 0 200 82.98">
  <g>
    <path d="M12.02,20.66h11.64v3h-1.02c-.57,0-.92.03-1.07.08-.27.1-.47.26-.59.47-.12.21-.19.55-.19,1.02v12.4c0,.5.03.8.08.92s.16.2.32.27c.16.07.47.1.92.1,1.53,0,2.75-.18,3.68-.54.93-.36,1.77-.95,2.51-1.75.75-.8,1.39-1.9,1.92-3.27l3.15.98-3.15,8.03H12.02v-3h1.14c.46,0,.82-.06,1.05-.17s.41-.27.52-.46c.11-.19.16-.53.16-1v-12.29c0-.52-.05-.89-.16-1.12-.11-.23-.26-.39-.46-.5-.2-.1-.53-.16-.99-.16h-1.26v-3Z" style="fill: #fff; stroke-width: 0px;"/>
    <path d="M47.39,20.29c3.78,0,6.85,1.05,9.19,3.14,2.34,2.09,3.51,4.79,3.51,8.07,0,2.21-.54,4.17-1.61,5.88-1.07,1.71-2.55,3.03-4.44,3.96-1.89.93-4.16,1.39-6.83,1.39-3.52,0-6.4-.88-8.65-2.64-2.71-2.13-4.07-4.97-4.07-8.52,0-3.31,1.19-6.01,3.56-8.12,2.38-2.11,5.48-3.16,9.32-3.16ZM47.46,23.74c-1.81,0-3.25.62-4.32,1.85-1.34,1.56-2.02,3.56-2.02,6.02s.63,4.4,1.88,5.83c1.08,1.22,2.51,1.84,4.29,1.84s3.22-.61,4.29-1.84c1.26-1.46,1.9-3.42,1.9-5.86,0-1.72-.27-3.17-.81-4.34-.54-1.17-1.27-2.05-2.2-2.63-.92-.58-1.93-.87-3.01-.87Z" style="fill: #fff; stroke-width: 0px;"/>
    <path d="M62.82,20.66h14.71c.95,0,1.98.08,3.1.23,1.12.16,2.14.5,3.04,1.03.91.53,1.61,1.2,2.11,2.01.5.81.75,1.72.75,2.74,0,1.65-.65,2.98-1.94,4.01-1.29,1.02-2.82,1.69-4.59,2l4.91,5.2.21.23c.32.35.61.61.87.79.26.17.52.29.79.37.26.07.63.11,1.09.11h1.03v3h-7.64l-7.66-9.35h-1.98v4.32c0,.75.05,1.22.14,1.42.09.2.24.35.44.45s.6.15,1.21.15h1.09v3h-11.67v-3h1.07c.56,0,.96-.05,1.19-.16.23-.11.41-.27.52-.49.06-.12.09-.51.09-1.17v-12.21c0-.48-.04-.82-.13-1.02s-.23-.33-.42-.4c-.27-.11-.59-.17-.95-.17l-.48.02h-.89v-3.1ZM71.62,24.22v5.62h3.54c1.39,0,2.43-.12,3.12-.35s1.21-.57,1.56-1,.52-.96.52-1.59c0-.57-.16-1.06-.49-1.47s-.79-.71-1.38-.91c-.6-.2-1.58-.3-2.93-.3h-3.93Z" style="fill: #fff; stroke-width: 0px;"/>
    <path d="M89.78,20.66h11.64v3h-1.15c-.52,0-.9.06-1.12.17-.22.11-.38.28-.49.49-.1.21-.15.65-.15,1.3v7.9c0,1.47.16,2.57.49,3.3.33.73.82,1.28,1.47,1.66.66.38,1.45.57,2.39.57s1.77-.21,2.5-.62c.73-.42,1.25-.94,1.57-1.58s.47-1.69.47-3.17v-8.71c0-.36-.05-.62-.15-.78-.14-.21-.32-.35-.55-.44-.16-.06-.56-.09-1.21-.09h-.92v-3h9.85v3h-.77c-.76,0-1.24.04-1.42.12-.27.12-.47.31-.6.54-.09.16-.14.59-.14,1.29v8.56c0,1.58-.25,2.9-.75,3.97-.7,1.45-1.8,2.58-3.32,3.38-1.52.8-3.32,1.21-5.41,1.21-1.47,0-2.79-.21-3.95-.61-1.16-.41-2.18-1-3.05-1.76s-1.48-1.57-1.83-2.42c-.35-.85-.52-2.1-.52-3.76v-8.38c0-.77-.05-1.26-.14-1.49-.09-.22-.24-.39-.44-.49-.21-.1-.6-.16-1.2-.16h-1.09v-3Z" style="fill: #fff; stroke-width: 0px;"/>
    <path d="M134.62,20.66l2.05,7.28-3.2.82c-1.06-1.74-2.26-3.01-3.6-3.81s-2.77-1.21-4.28-1.21c-.98,0-1.75.18-2.31.55-.56.36-.84.77-.84,1.21,0,.51.26.98.77,1.42.5.44,1.42.83,2.77,1.17l4.58,1.21c2.54.66,4.35,1.55,5.44,2.65,1.07,1.11,1.61,2.4,1.61,3.88,0,1.88-.82,3.47-2.46,4.76-1.83,1.43-4.11,2.15-6.84,2.15-1.26,0-2.43-.15-3.49-.44-1.06-.3-2.17-.79-3.32-1.49l-.75,1.56h-2.55l-1.69-8.42,3.2-.7c.75,1.71,1.92,3.14,3.51,4.29,1.59,1.15,3.34,1.72,5.24,1.72.85,0,1.56-.1,2.13-.3.56-.2.99-.47,1.27-.82.28-.35.43-.72.43-1.09,0-.62-.33-1.16-.99-1.6-.67-.45-1.85-.89-3.52-1.32l-3.98-1.06c-.6-.16-1.42-.45-2.45-.88-1.03-.43-1.82-.88-2.37-1.35-.55-.47-1.01-1.07-1.38-1.8-.36-.73-.55-1.5-.55-2.31,0-1.15.35-2.21,1.05-3.18.7-.97,1.75-1.76,3.16-2.36s2.97-.9,4.67-.9c2.06,0,3.93.49,5.59,1.46l.67-1.09h2.44Z" style="fill: #fff; stroke-width: 0px;"/>
    <path d="M158.01,20.66l2.05,7.28-3.2.82c-1.06-1.74-2.26-3.01-3.6-3.81s-2.77-1.21-4.28-1.21c-.98,0-1.75.18-2.31.55-.56.36-.84.77-.84,1.21,0,.51.26.98.77,1.42.5.44,1.42.83,2.77,1.17l4.58,1.21c2.54.66,4.35,1.55,5.44,2.65,1.07,1.11,1.61,2.4,1.61,3.88,0,1.88-.82,3.47-2.46,4.76-1.83,1.43-4.11,2.15-6.84,2.15-1.26,0-2.43-.15-3.49-.44-1.06-.3-2.17-.79-3.32-1.49l-.75,1.56h-2.55l-1.69-8.42,3.2-.7c.75,1.71,1.92,3.14,3.51,4.29,1.59,1.15,3.34,1.72,5.24,1.72.85,0,1.56-.1,2.13-.3.56-.2.99-.47,1.27-.82.28-.35.43-.72.43-1.09,0-.62-.33-1.16-.99-1.6-.67-.45-1.85-.89-3.52-1.32l-3.98-1.06c-.6-.16-1.42-.45-2.45-.88-1.03-.43-1.82-.88-2.37-1.35-.55-.47-1.01-1.07-1.38-1.8-.36-.73-.55-1.5-.55-2.31,0-1.15.35-2.21,1.05-3.18.7-.97,1.75-1.76,3.16-2.36s2.97-.9,4.67-.9c2.06,0,3.93.49,5.59,1.46l.67-1.09h2.44Z" style="fill: #fff; stroke-width: 0px;"/>
    <path d="M176.2,20.29c3.78,0,6.85,1.05,9.19,3.14,2.34,2.09,3.51,4.79,3.51,8.07,0,2.21-.54,4.17-1.61,5.88-1.07,1.71-2.55,3.03-4.44,3.96-1.89.93-4.16,1.39-6.83,1.39-3.52,0-6.4-.88-8.65-2.64-2.71-2.13-4.07-4.97-4.07-8.52,0-3.31,1.19-6.01,3.56-8.12,2.38-2.11,5.48-3.16,9.32-3.16ZM176.27,23.74c-1.81,0-3.25.62-4.32,1.85-1.34,1.56-2.02,3.56-2.02,6.02s.63,4.4,1.88,5.83c1.08,1.22,2.51,1.84,4.29,1.84s3.22-.61,4.29-1.84c1.26-1.46,1.9-3.42,1.9-5.86,0-1.72-.27-3.17-.81-4.34-.54-1.17-1.27-2.05-2.2-2.63-.92-.58-1.93-.87-3.01-.87Z" style="fill: #fff; stroke-width: 0px;"/>
  </g>
  <g>
    <path d="M10.68,57.25l1.58-.13c.07.62.25,1.12.52,1.52.27.4.7.72,1.27.96s1.22.37,1.94.37c.64,0,1.2-.09,1.69-.28s.85-.44,1.09-.76c.24-.32.36-.67.36-1.06s-.11-.73-.34-1.01-.61-.53-1.14-.73c-.34-.13-1.09-.33-2.25-.6-1.16-.27-1.97-.53-2.44-.77-.6-.31-1.05-.69-1.35-1.15-.3-.46-.44-.97-.44-1.54,0-.62.18-1.2.54-1.75.36-.54.89-.95,1.59-1.23.7-.28,1.47-.42,2.32-.42.94,0,1.76.15,2.48.44.72.29,1.27.73,1.65,1.3.38.57.59,1.22.62,1.94l-1.6.12c-.09-.78-.38-1.37-.88-1.77s-1.23-.6-2.2-.6-1.75.18-2.21.54c-.46.36-.69.8-.69,1.31,0,.44.16.81.49,1.09.32.29,1.16.58,2.52.88,1.36.3,2.29.56,2.8.79.74.33,1.28.75,1.63,1.26s.53,1.09.53,1.75-.19,1.27-.58,1.86c-.39.58-.94,1.03-1.66,1.35-.72.32-1.53.48-2.44.48-1.14,0-2.1-.16-2.88-.49s-1.38-.81-1.82-1.47c-.44-.65-.67-1.39-.69-2.22Z" style="fill: #fff; stroke-width: 0px;"/>
    <path d="M29.27,58.34l1.6.19c-.25.92-.72,1.62-1.41,2.13-.68.51-1.56.76-2.62.76-1.34,0-2.4-.4-3.19-1.21-.78-.81-1.18-1.93-1.18-3.39s.4-2.67,1.19-3.5c.79-.83,1.82-1.25,3.09-1.25s2.22.41,3,1.22,1.16,1.96,1.16,3.43c0,.09,0,.22,0,.4h-6.83c.06.98.34,1.73.85,2.26.51.52,1.15.78,1.91.78.57,0,1.05-.15,1.46-.44.4-.29.72-.76.96-1.4ZM24.18,55.89h5.11c-.07-.75-.26-1.32-.59-1.69-.49-.58-1.14-.88-1.92-.88-.71,0-1.31.23-1.8.7-.49.47-.75,1.09-.81,1.87Z" style="fill: #fff; stroke-width: 0px;"/>
    <path d="M32.99,61.22v-8.94h1.4v1.36c.36-.63.69-1.05.99-1.25.3-.2.63-.3,1-.3.52,0,1.05.16,1.6.49l-.53,1.41c-.38-.22-.76-.33-1.14-.33-.34,0-.64.1-.91.3s-.46.48-.58.83c-.17.54-.26,1.13-.26,1.77v4.68h-1.55Z" style="fill: #fff; stroke-width: 0px;"/>
    <path d="M41.6,61.22l-3.48-8.94h1.64l1.97,5.35c.21.58.41,1.18.59,1.8.14-.47.33-1.04.58-1.7l2.03-5.45h1.59l-3.47,8.94h-1.45Z" style="fill: #fff; stroke-width: 0px;"/>
    <path d="M48.07,50.62v-1.74h1.55v1.74h-1.55ZM48.07,61.22v-8.94h1.55v8.94h-1.55Z" style="fill: #fff; stroke-width: 0px;"/>
    <path d="M58.14,57.94l1.53.19c-.17,1.03-.59,1.83-1.28,2.41-.69.58-1.53.87-2.53.87-1.25,0-2.26-.4-3.02-1.2-.76-.8-1.14-1.95-1.14-3.44,0-.96.16-1.81.49-2.53.33-.72.83-1.27,1.5-1.63.67-.36,1.4-.54,2.19-.54.99,0,1.81.25,2.44.74.63.49,1.04,1.19,1.22,2.09l-1.51.23c-.14-.6-.4-1.05-.76-1.35-.37-.3-.81-.45-1.32-.45-.78,0-1.42.27-1.91.82-.49.55-.73,1.41-.73,2.6s.24,2.07.71,2.62c.47.54,1.09.82,1.84.82.61,0,1.12-.18,1.53-.55s.67-.93.78-1.68Z" style="fill: #fff; stroke-width: 0px;"/>
    <path d="M61.18,50.62v-1.74h1.55v1.74h-1.55ZM61.18,61.22v-8.94h1.55v8.94h-1.55Z" style="fill: #fff; stroke-width: 0px;"/>
    <path d="M64.69,56.75c0-1.66.47-2.88,1.41-3.68.79-.66,1.75-.99,2.88-.99,1.26,0,2.29.4,3.09,1.21s1.2,1.92,1.2,3.34c0,1.15-.18,2.05-.53,2.71-.35.66-.87,1.17-1.54,1.54s-1.41.55-2.21.55c-1.28,0-2.32-.4-3.11-1.2-.79-.8-1.19-1.96-1.19-3.47ZM66.28,56.75c0,1.14.26,2,.77,2.57.51.57,1.16.85,1.93.85s1.41-.29,1.92-.86c.51-.57.77-1.44.77-2.62,0-1.11-.26-1.94-.77-2.51-.51-.57-1.15-.85-1.92-.85s-1.42.28-1.93.85c-.51.57-.77,1.42-.77,2.57Z" style="fill: #fff; stroke-width: 0px;"/>
    <path d="M74.64,58.55l1.53-.24c.09.6.33,1.06.72,1.38.39.32.94.48,1.65.48s1.24-.14,1.59-.43c.35-.28.52-.62.52-1,0-.34-.15-.61-.46-.81-.21-.13-.74-.31-1.59-.51-1.14-.28-1.93-.52-2.37-.73-.44-.2-.77-.49-1-.85-.23-.36-.34-.76-.34-1.2,0-.4.09-.77.28-1.11.19-.34.44-.62.76-.85.24-.17.57-.32.99-.44.42-.12.86-.18,1.34-.18.72,0,1.35.1,1.89.3.54.2.94.48,1.2.82s.44.81.53,1.38l-1.52.2c-.07-.46-.27-.82-.6-1.08-.33-.26-.8-.39-1.4-.39-.71,0-1.22.11-1.53.34-.3.23-.46.5-.46.81,0,.2.06.37.19.53.13.16.32.3.59.4.16.06.61.19,1.37.39,1.1.29,1.86.52,2.3.7.43.18.77.45,1.02.8.25.35.37.78.37,1.3s-.15.98-.45,1.43c-.3.45-.74.79-1.31,1.04s-1.21.37-1.93.37c-1.19,0-2.1-.24-2.72-.72-.62-.48-1.02-1.2-1.19-2.15Z" style="fill: #fff; stroke-width: 0px;"/>
    <path d="M89.83,61.22v-12.34h1.67v12.34h-1.67Z" style="fill: #fff; stroke-width: 0px;"/>
    <path d="M94.43,61.22v-8.94h1.4v1.27c.67-.98,1.64-1.47,2.91-1.47.55,0,1.06.1,1.52.29.46.19.81.45,1.04.76.23.31.39.69.48,1.12.06.28.09.77.09,1.47v5.5h-1.55v-5.44c0-.62-.06-1.08-.18-1.38-.12-.31-.33-.55-.64-.73-.31-.18-.67-.27-1.08-.27-.66,0-1.23.2-1.71.61s-.72,1.19-.72,2.33v4.88h-1.55Z" style="fill: #fff; stroke-width: 0px;"/>
    <path d="M104.43,61.22v-8.94h1.39v1.25c.29-.44.67-.79,1.15-1.06.48-.27,1.02-.4,1.63-.4.68,0,1.23.14,1.67.41s.74.66.92,1.15c.72-1.04,1.67-1.57,2.83-1.57.91,0,1.61.25,2.09.74.49.49.73,1.25.73,2.27v6.14h-1.54v-5.63c0-.61-.05-1.04-.15-1.31-.1-.27-.28-.48-.55-.64-.26-.16-.57-.24-.93-.24-.64,0-1.18.21-1.6.63s-.64,1.09-.64,2.01v5.19h-1.55v-5.81c0-.67-.13-1.18-.38-1.52-.25-.34-.67-.5-1.24-.5-.44,0-.84.11-1.21.34-.37.22-.64.55-.81.98-.17.43-.25,1.05-.25,1.87v4.64h-1.55Z" style="fill: #fff; stroke-width: 0px;"/>
    <path d="M118.73,56.75c0-1.66.47-2.88,1.41-3.68.79-.66,1.75-.99,2.88-.99,1.26,0,2.29.4,3.09,1.21s1.2,1.92,1.2,3.34c0,1.15-.18,2.05-.53,2.71-.35.66-.87,1.17-1.54,1.54s-1.41.55-2.21.55c-1.28,0-2.32-.4-3.11-1.2-.79-.8-1.19-1.96-1.19-3.47ZM120.33,56.75c0,1.14.26,2,.77,2.57.51.57,1.16.85,1.93.85s1.41-.29,1.92-.86c.51-.57.77-1.44.77-2.62,0-1.11-.26-1.94-.77-2.51-.51-.57-1.15-.85-1.92-.85s-1.42.28-1.93.85c-.51.57-.77,1.42-.77,2.57Z" style="fill: #fff; stroke-width: 0px;"/>
    <path d="M130.74,61.22h-1.44v-12.34h1.55v4.4c.66-.8,1.49-1.2,2.51-1.2.56,0,1.1.11,1.6.33s.92.53,1.24.93c.32.4.58.89.76,1.45.18.57.28,1.17.28,1.82,0,1.53-.39,2.72-1.16,3.55-.78.84-1.71,1.25-2.79,1.25s-1.93-.44-2.54-1.32v1.12ZM130.72,56.68c0,1.07.15,1.85.45,2.32.49.78,1.15,1.17,1.98,1.17.68,0,1.26-.29,1.76-.86s.74-1.43.74-2.57-.24-2.03-.71-2.58c-.47-.56-1.05-.83-1.72-.83s-1.26.29-1.76.86c-.49.58-.74,1.41-.74,2.5Z" style="fill: #fff; stroke-width: 0px;"/>
    <path d="M139.31,50.62v-1.74h1.55v1.74h-1.55ZM139.31,61.22v-8.94h1.55v8.94h-1.55Z" style="fill: #fff; stroke-width: 0px;"/>
    <path d="M143.37,61.22v-12.34h1.55v12.34h-1.55Z" style="fill: #fff; stroke-width: 0px;"/>
    <path d="M147.51,50.62v-1.74h1.55v1.74h-1.55ZM147.51,61.22v-8.94h1.55v8.94h-1.55Z" style="fill: #fff; stroke-width: 0px;"/>
    <path d="M157.58,60.12c-.57.48-1.13.81-1.66,1.01-.53.2-1.1.29-1.71.29-1.01,0-1.78-.24-2.32-.72-.54-.48-.81-1.09-.81-1.84,0-.44.1-.84.31-1.2.2-.36.47-.65.8-.87.33-.22.7-.38,1.12-.5.3-.08.76-.15,1.38-.23,1.25-.15,2.18-.32,2.77-.52,0-.21,0-.34,0-.4,0-.62-.15-1.05-.44-1.3-.4-.34-.99-.51-1.77-.51-.73,0-1.27.12-1.62.37-.35.25-.6.69-.77,1.33l-1.52-.2c.14-.63.36-1.15.68-1.54.32-.39.77-.69,1.37-.9s1.29-.32,2.08-.32,1.42.09,1.91.27c.49.18.85.41,1.08.68s.39.62.48,1.03c.05.26.08.72.08,1.4v2.02c0,1.41.03,2.3.1,2.67.07.37.2.73.39,1.07h-1.62c-.16-.31-.26-.68-.31-1.1ZM157.45,56.73c-.56.22-1.41.42-2.53.57-.64.09-1.09.19-1.35.3-.26.11-.47.28-.61.49-.14.22-.22.46-.22.72,0,.4.16.74.47,1.01.31.27.77.4,1.38.4s1.13-.13,1.59-.38c.47-.26.81-.6,1.03-1.05.17-.34.25-.85.25-1.52v-.56Z" style="fill: #fff; stroke-width: 0px;"/>
    <path d="M161.58,61.22v-8.94h1.4v1.36c.36-.63.69-1.05.99-1.25.3-.2.63-.3,1-.3.52,0,1.05.16,1.6.49l-.53,1.41c-.38-.22-.76-.33-1.14-.33-.34,0-.64.1-.91.3s-.46.48-.58.83c-.17.54-.26,1.13-.26,1.77v4.68h-1.55Z" style="fill: #fff; stroke-width: 0px;"/>
    <path d="M167.66,50.62v-1.74h1.55v1.74h-1.55ZM167.66,61.22v-8.94h1.55v8.94h-1.55Z" style="fill: #fff; stroke-width: 0px;"/>
    <path d="M171.17,56.75c0-1.66.47-2.88,1.41-3.68.79-.66,1.75-.99,2.88-.99,1.26,0,2.29.4,3.09,1.21s1.2,1.92,1.2,3.34c0,1.15-.18,2.05-.53,2.71-.35.66-.87,1.17-1.54,1.54s-1.41.55-2.21.55c-1.28,0-2.32-.4-3.11-1.2-.79-.8-1.19-1.96-1.19-3.47ZM172.77,56.75c0,1.14.26,2,.77,2.57.51.57,1.16.85,1.93.85s1.41-.29,1.92-.86c.51-.57.77-1.44.77-2.62,0-1.11-.26-1.94-.77-2.51-.51-.57-1.15-.85-1.92-.85s-1.42.28-1.93.85c-.51.57-.77,1.42-.77,2.57Z" style="fill: #fff; stroke-width: 0px;"/>
    <path d="M181.13,58.55l1.53-.24c.09.6.33,1.06.72,1.38.39.32.94.48,1.65.48s1.24-.14,1.59-.43c.35-.28.52-.62.52-1,0-.34-.15-.61-.46-.81-.21-.13-.74-.31-1.59-.51-1.14-.28-1.93-.52-2.37-.73-.44-.2-.77-.49-1-.85-.23-.36-.34-.76-.34-1.2,0-.4.09-.77.28-1.11.19-.34.44-.62.76-.85.24-.17.57-.32.99-.44.42-.12.86-.18,1.34-.18.72,0,1.35.1,1.89.3.54.2.94.48,1.2.82s.44.81.53,1.38l-1.52.2c-.07-.46-.27-.82-.6-1.08-.33-.26-.8-.39-1.4-.39-.71,0-1.22.11-1.53.34-.3.23-.46.5-.46.81,0,.2.06.37.19.53.13.16.32.3.59.4.16.06.61.19,1.37.39,1.1.29,1.86.52,2.3.7.43.18.77.45,1.02.8.25.35.37.78.37,1.3s-.15.98-.45,1.43c-.3.45-.74.79-1.31,1.04s-1.21.37-1.93.37c-1.19,0-2.1-.24-2.72-.72-.62-.48-1.02-1.2-1.19-2.15Z" style="fill: #fff; stroke-width: 0px;"/>
  </g>
</svg>